<?xml version="1.0" encoding="UTF-8" standalone="no"?>
<!DOCTYPE svg PUBLIC "-//W3C//DTD SVG 1.1//EN"
 "http://www.w3.org/Graphics/SVG/1.1/DTD/svg11.dtd">
<!-- Generated by graphviz version 2.26.3 (20100126.1600)
 -->
<!-- Title: models_diagram Pages: 1 -->
<svg width="1374pt" height="1185pt"
 viewBox="0.00 0.00 1374.00 1185.00" xmlns="http://www.w3.org/2000/svg" xmlns:xlink="http://www.w3.org/1999/xlink">
<g id="graph1" class="graph" transform="scale(1 1) rotate(0) translate(4 1181)">
<title>models_diagram</title>
<polygon fill="white" stroke="white" points="-4,5 -4,-1181 1371,-1181 1371,5 -4,5"/>
<!-- Country -->
<g id="node1" class="node"><title>Country</title>
<polyline fill="none" stroke="black" points="34.633,-789.1 114.633,-789.1 "/>
<path fill="none" stroke="black" d="M114.633,-789.1C120.633,-789.1 126.633,-795.1 126.633,-801.1"/>
<polyline fill="none" stroke="black" points="126.633,-801.1 126.633,-829.1 "/>
<path fill="none" stroke="black" d="M126.633,-829.1C126.633,-835.1 120.633,-841.1 114.633,-841.1"/>
<polyline fill="none" stroke="black" points="114.633,-841.1 34.633,-841.1 "/>
<path fill="none" stroke="black" d="M34.633,-841.1C28.633,-841.1 22.633,-835.1 22.633,-829.1"/>
<polyline fill="none" stroke="black" points="22.633,-829.1 22.633,-801.1 "/>
<path fill="none" stroke="black" d="M22.633,-801.1C22.633,-795.1 28.633,-789.1 34.633,-789.1"/>
<text text-anchor="middle" x="74.633" y="-824.5" font-family="Times Roman,serif" font-size="14.00">Country</text>
<polyline fill="none" stroke="black" points="22.633,-815.1 126.633,-815.1 "/>
<text text-anchor="start" x="30.633" y="-798.5" font-family="Times Roman,serif" font-size="14.00">name :string</text>
</g>
<!-- State -->
<g id="node15" class="node"><title>State</title>
<polyline fill="none" stroke="black" points="315.121,-842.935 395.121,-842.935 "/>
<path fill="none" stroke="black" d="M395.121,-842.935C401.121,-842.935 407.121,-848.935 407.121,-854.935"/>
<polyline fill="none" stroke="black" points="407.121,-854.935 407.121,-882.935 "/>
<path fill="none" stroke="black" d="M407.121,-882.935C407.121,-888.935 401.121,-894.935 395.121,-894.935"/>
<polyline fill="none" stroke="black" points="395.121,-894.935 315.121,-894.935 "/>
<path fill="none" stroke="black" d="M315.121,-894.935C309.121,-894.935 303.121,-888.935 303.121,-882.935"/>
<polyline fill="none" stroke="black" points="303.121,-882.935 303.121,-854.935 "/>
<path fill="none" stroke="black" d="M303.121,-854.935C303.121,-848.935 309.121,-842.935 315.121,-842.935"/>
<text text-anchor="middle" x="355.121" y="-878.335" font-family="Times Roman,serif" font-size="14.00">State</text>
<polyline fill="none" stroke="black" points="303.121,-868.935 407.121,-868.935 "/>
<text text-anchor="start" x="311.121" y="-852.335" font-family="Times Roman,serif" font-size="14.00">name :string</text>
</g>
<!-- Country&#45;&gt;State -->
<g id="edge2" class="edge"><title>Country&#45;&gt;State</title>
<path fill="none" stroke="black" d="M136.747,-827.022C183.867,-836.066 248.269,-848.427 294.914,-857.379"/>
<polygon fill="black" stroke="black" points="136.554,-826.985 127.582,-820.681 131.644,-826.042 126.733,-825.1 126.733,-825.1 126.733,-825.1 131.644,-826.042 125.885,-829.519 136.554,-826.985 136.554,-826.985"/>
<ellipse fill="black" stroke="black" cx="298.897" cy="-858.144" rx="4.00001" ry="4.00001"/>
</g>
<!-- Delivery -->
<g id="node2" class="node"><title>Delivery</title>
<polyline fill="none" stroke="black" points="514.017,-170.438 657.017,-170.438 "/>
<path fill="none" stroke="black" d="M657.017,-170.438C663.017,-170.438 669.017,-176.438 669.017,-182.438"/>
<polyline fill="none" stroke="black" points="669.017,-182.438 669.017,-300.438 "/>
<path fill="none" stroke="black" d="M669.017,-300.438C669.017,-306.438 663.017,-312.438 657.017,-312.438"/>
<polyline fill="none" stroke="black" points="657.017,-312.438 514.017,-312.438 "/>
<path fill="none" stroke="black" d="M514.017,-312.438C508.017,-312.438 502.017,-306.438 502.017,-300.438"/>
<polyline fill="none" stroke="black" points="502.017,-300.438 502.017,-182.438 "/>
<path fill="none" stroke="black" d="M502.017,-182.438C502.017,-176.438 508.017,-170.438 514.017,-170.438"/>
<text text-anchor="middle" x="585.517" y="-295.838" font-family="Times Roman,serif" font-size="14.00">Delivery</text>
<polyline fill="none" stroke="black" points="502.017,-286.438 669.017,-286.438 "/>
<text text-anchor="start" x="510.017" y="-269.838" font-family="Times Roman,serif" font-size="14.00">tracking_code :string</text>
<text text-anchor="start" x="510.017" y="-251.838" font-family="Times Roman,serif" font-size="14.00">status :string</text>
<text text-anchor="start" x="510.017" y="-233.838" font-family="Times Roman,serif" font-size="14.00">shipped_at :datetime</text>
<text text-anchor="start" x="510.017" y="-215.838" font-family="Times Roman,serif" font-size="14.00">received_at :datetime</text>
<text text-anchor="start" x="510.017" y="-197.838" font-family="Times Roman,serif" font-size="14.00">created_at :datetime</text>
<text text-anchor="start" x="510.017" y="-179.838" font-family="Times Roman,serif" font-size="14.00">updated_at :datetime</text>
</g>
<!-- Feedback -->
<g id="node3" class="node"><title>Feedback</title>
<polyline fill="none" stroke="black" points="632.961,-1.5 773.961,-1.5 "/>
<path fill="none" stroke="black" d="M773.961,-1.5C779.961,-1.5 785.961,-7.5 785.961,-13.5"/>
<polyline fill="none" stroke="black" points="785.961,-13.5 785.961,-77.5 "/>
<path fill="none" stroke="black" d="M785.961,-77.5C785.961,-83.5 779.961,-89.5 773.961,-89.5"/>
<polyline fill="none" stroke="black" points="773.961,-89.5 632.961,-89.5 "/>
<path fill="none" stroke="black" d="M632.961,-89.5C626.961,-89.5 620.961,-83.5 620.961,-77.5"/>
<polyline fill="none" stroke="black" points="620.961,-77.5 620.961,-13.5 "/>
<path fill="none" stroke="black" d="M620.961,-13.5C620.961,-7.5 626.961,-1.5 632.961,-1.5"/>
<text text-anchor="middle" x="703.461" y="-72.9" font-family="Times Roman,serif" font-size="14.00">Feedback</text>
<polyline fill="none" stroke="black" points="620.961,-63.5 785.961,-63.5 "/>
<text text-anchor="start" x="628.961" y="-46.9" font-family="Times Roman,serif" font-size="14.00">desciption :text</text>
<text text-anchor="start" x="628.961" y="-28.9" font-family="Times Roman,serif" font-size="14.00">created_at :datetime</text>
<text text-anchor="start" x="628.961" y="-10.9" font-family="Times Roman,serif" font-size="14.00">updated_at :datetime</text>
</g>
<!-- Delivery&#45;&gt;Feedback -->
<g id="edge6" class="edge"><title>Delivery&#45;&gt;Feedback</title>
<path fill="none" stroke="black" d="M632.499,-163.389C646.031,-140.907 660.443,-116.965 672.719,-96.5711"/>
<ellipse fill="none" stroke="black" cx="630.328" cy="-166.996" rx="4.00002" ry="4.00002"/>
<ellipse fill="black" stroke="black" cx="674.904" cy="-92.9408" rx="4.00002" ry="4.00002"/>
</g>
<!-- OrderItem -->
<g id="node4" class="node"><title>OrderItem</title>
<polyline fill="none" stroke="black" points="456.121,-638.342 566.121,-638.342 "/>
<path fill="none" stroke="black" d="M566.121,-638.342C572.121,-638.342 578.121,-644.342 578.121,-650.342"/>
<polyline fill="none" stroke="black" points="578.121,-650.342 578.121,-678.342 "/>
<path fill="none" stroke="black" d="M578.121,-678.342C578.121,-684.342 572.121,-690.342 566.121,-690.342"/>
<polyline fill="none" stroke="black" points="566.121,-690.342 456.121,-690.342 "/>
<path fill="none" stroke="black" d="M456.121,-690.342C450.121,-690.342 444.121,-684.342 444.121,-678.342"/>
<polyline fill="none" stroke="black" points="444.121,-678.342 444.121,-650.342 "/>
<path fill="none" stroke="black" d="M444.121,-650.342C444.121,-644.342 450.121,-638.342 456.121,-638.342"/>
<text text-anchor="middle" x="511.121" y="-673.742" font-family="Times Roman,serif" font-size="14.00">OrderItem</text>
<polyline fill="none" stroke="black" points="444.121,-664.342 578.121,-664.342 "/>
<text text-anchor="start" x="452.121" y="-647.742" font-family="Times Roman,serif" font-size="14.00">quantity :integer</text>
</g>
<!-- Delivery&#45;&gt;OrderItem -->
<g id="edge4" class="edge"><title>Delivery&#45;&gt;OrderItem</title>
<path fill="none" stroke="black" d="M610.907,-322.397C626.207,-384.905 638.161,-472.58 611.921,-544.529 599.62,-578.257 573.183,-609.073 550.47,-631.005"/>
<polygon fill="black" stroke="black" points="610.878,-322.283 612.791,-311.485 609.653,-317.435 608.428,-312.588 608.428,-312.588 608.428,-312.588 609.653,-317.435 604.065,-313.69 610.878,-322.283 610.878,-322.283"/>
<polygon fill="black" stroke="black" points="550.219,-631.241 539.852,-634.816 546.577,-634.667 542.936,-638.093 542.936,-638.093 542.936,-638.093 546.577,-634.667 546.019,-641.371 550.219,-631.241 550.219,-631.241"/>
</g>
<!-- Purchase -->
<g id="node5" class="node"><title>Purchase</title>
<polyline fill="none" stroke="black" points="1122.88,-801.296 1263.88,-801.296 "/>
<path fill="none" stroke="black" d="M1263.88,-801.296C1269.88,-801.296 1275.88,-807.296 1275.88,-813.296"/>
<polyline fill="none" stroke="black" points="1275.88,-813.296 1275.88,-895.296 "/>
<path fill="none" stroke="black" d="M1275.88,-895.296C1275.88,-901.296 1269.88,-907.296 1263.88,-907.296"/>
<polyline fill="none" stroke="black" points="1263.88,-907.296 1122.88,-907.296 "/>
<path fill="none" stroke="black" d="M1122.88,-907.296C1116.88,-907.296 1110.88,-901.296 1110.88,-895.296"/>
<polyline fill="none" stroke="black" points="1110.88,-895.296 1110.88,-813.296 "/>
<path fill="none" stroke="black" d="M1110.88,-813.296C1110.88,-807.296 1116.88,-801.296 1122.88,-801.296"/>
<text text-anchor="middle" x="1193.38" y="-890.696" font-family="Times Roman,serif" font-size="14.00">Purchase</text>
<polyline fill="none" stroke="black" points="1110.88,-881.296 1275.88,-881.296 "/>
<text text-anchor="start" x="1118.88" y="-864.696" font-family="Times Roman,serif" font-size="14.00">total_price :integer</text>
<text text-anchor="start" x="1118.88" y="-846.696" font-family="Times Roman,serif" font-size="14.00">quantity :integer</text>
<text text-anchor="start" x="1118.88" y="-828.696" font-family="Times Roman,serif" font-size="14.00">created_at :datetime</text>
<text text-anchor="start" x="1118.88" y="-810.696" font-family="Times Roman,serif" font-size="14.00">updated_at :datetime</text>
</g>
<!-- Cart -->
<g id="node6" class="node"><title>Cart</title>
<polyline fill="none" stroke="black" points="813.41,-836.721 962.41,-836.721 "/>
<path fill="none" stroke="black" d="M962.41,-836.721C968.41,-836.721 974.41,-842.721 974.41,-848.721"/>
<polyline fill="none" stroke="black" points="974.41,-848.721 974.41,-894.721 "/>
<path fill="none" stroke="black" d="M974.41,-894.721C974.41,-900.721 968.41,-906.721 962.41,-906.721"/>
<polyline fill="none" stroke="black" points="962.41,-906.721 813.41,-906.721 "/>
<path fill="none" stroke="black" d="M813.41,-906.721C807.41,-906.721 801.41,-900.721 801.41,-894.721"/>
<polyline fill="none" stroke="black" points="801.41,-894.721 801.41,-848.721 "/>
<path fill="none" stroke="black" d="M801.41,-848.721C801.41,-842.721 807.41,-836.721 813.41,-836.721"/>
<text text-anchor="middle" x="887.91" y="-890.121" font-family="Times Roman,serif" font-size="14.00">Cart</text>
<polyline fill="none" stroke="black" points="801.41,-880.721 974.41,-880.721 "/>
<text text-anchor="start" x="809.41" y="-864.121" font-family="Times Roman,serif" font-size="14.00">total_quantity :integer</text>
<text text-anchor="start" x="809.41" y="-846.121" font-family="Times Roman,serif" font-size="14.00">total_price :integer</text>
</g>
<!-- CartItem -->
<g id="node19" class="node"><title>CartItem</title>
<polyline fill="none" stroke="black" points="1162.95,-553.736 1272.95,-553.736 "/>
<path fill="none" stroke="black" d="M1272.95,-553.736C1278.95,-553.736 1284.95,-559.736 1284.95,-565.736"/>
<polyline fill="none" stroke="black" points="1284.95,-565.736 1284.95,-593.736 "/>
<path fill="none" stroke="black" d="M1284.95,-593.736C1284.95,-599.736 1278.95,-605.736 1272.95,-605.736"/>
<polyline fill="none" stroke="black" points="1272.95,-605.736 1162.95,-605.736 "/>
<path fill="none" stroke="black" d="M1162.95,-605.736C1156.95,-605.736 1150.95,-599.736 1150.95,-593.736"/>
<polyline fill="none" stroke="black" points="1150.95,-593.736 1150.95,-565.736 "/>
<path fill="none" stroke="black" d="M1150.95,-565.736C1150.95,-559.736 1156.95,-553.736 1162.95,-553.736"/>
<text text-anchor="middle" x="1217.95" y="-589.136" font-family="Times Roman,serif" font-size="14.00">CartItem</text>
<polyline fill="none" stroke="black" points="1150.95,-579.736 1284.95,-579.736 "/>
<text text-anchor="start" x="1158.95" y="-563.136" font-family="Times Roman,serif" font-size="14.00">quantity :integer</text>
</g>
<!-- Cart&#45;&gt;CartItem -->
<g id="edge8" class="edge"><title>Cart&#45;&gt;CartItem</title>
<path fill="none" stroke="black" d="M963.239,-831.329C996.787,-811.612 1035.77,-786.216 1067.37,-758.684 1118.81,-713.864 1167.6,-650.78 1195.06,-612.722"/>
<polygon fill="black" stroke="black" points="963.03,-831.451 952.123,-832.586 958.708,-833.963 954.385,-836.476 954.385,-836.476 954.385,-836.476 958.708,-833.963 956.647,-840.367 963.03,-831.451 963.03,-831.451"/>
<ellipse fill="black" stroke="black" cx="1197.6" cy="-609.169" rx="4.00002" ry="4.00002"/>
</g>
<!-- CouponCode -->
<g id="node22" class="node"><title>CouponCode</title>
<polyline fill="none" stroke="black" points="631.299,-541.01 824.299,-541.01 "/>
<path fill="none" stroke="black" d="M824.299,-541.01C830.299,-541.01 836.299,-547.01 836.299,-553.01"/>
<polyline fill="none" stroke="black" points="836.299,-553.01 836.299,-689.01 "/>
<path fill="none" stroke="black" d="M836.299,-689.01C836.299,-695.01 830.299,-701.01 824.299,-701.01"/>
<polyline fill="none" stroke="black" points="824.299,-701.01 631.299,-701.01 "/>
<path fill="none" stroke="black" d="M631.299,-701.01C625.299,-701.01 619.299,-695.01 619.299,-689.01"/>
<polyline fill="none" stroke="black" points="619.299,-689.01 619.299,-553.01 "/>
<path fill="none" stroke="black" d="M619.299,-553.01C619.299,-547.01 625.299,-541.01 631.299,-541.01"/>
<text text-anchor="middle" x="727.799" y="-684.41" font-family="Times Roman,serif" font-size="14.00">CouponCode</text>
<polyline fill="none" stroke="black" points="619.299,-675.01 836.299,-675.01 "/>
<text text-anchor="start" x="627.299" y="-658.41" font-family="Times Roman,serif" font-size="14.00">name :string</text>
<text text-anchor="start" x="627.299" y="-640.41" font-family="Times Roman,serif" font-size="14.00">validity_start_date :datetime</text>
<text text-anchor="start" x="627.299" y="-622.41" font-family="Times Roman,serif" font-size="14.00">validity_end_date :datetime</text>
<text text-anchor="start" x="627.299" y="-604.41" font-family="Times Roman,serif" font-size="14.00">discount :integer</text>
<text text-anchor="start" x="627.299" y="-586.41" font-family="Times Roman,serif" font-size="14.00">is_for_total_amount :boolean</text>
<text text-anchor="start" x="627.299" y="-568.41" font-family="Times Roman,serif" font-size="14.00">created_at :datetime</text>
<text text-anchor="start" x="627.299" y="-550.41" font-family="Times Roman,serif" font-size="14.00">updated_at :datetime</text>
</g>
<!-- Cart&#45;&gt;CouponCode -->
<g id="edge10" class="edge"><title>Cart&#45;&gt;CouponCode</title>
<path fill="none" stroke="black" d="M860.02,-828.05C839.184,-795.424 809.999,-749.724 784.348,-709.557"/>
<polygon fill="black" stroke="black" points="860.096,-828.169 861.686,-839.019 862.787,-832.383 865.478,-836.597 865.478,-836.597 865.478,-836.597 862.787,-832.383 869.271,-834.175 860.096,-828.169 860.096,-828.169"/>
<polygon fill="black" stroke="black" points="784.314,-709.505 782.724,-698.655 781.623,-705.291 778.932,-701.077 778.932,-701.077 778.932,-701.077 781.623,-705.291 775.139,-703.499 784.314,-709.505 784.314,-709.505"/>
</g>
<!-- User -->
<g id="node7" class="node"><title>User</title>
<polyline fill="none" stroke="black" points="233.327,-230.167 399.327,-230.167 "/>
<path fill="none" stroke="black" d="M399.327,-230.167C405.327,-230.167 411.327,-236.167 411.327,-242.167"/>
<polyline fill="none" stroke="black" points="411.327,-242.167 411.327,-378.167 "/>
<path fill="none" stroke="black" d="M411.327,-378.167C411.327,-384.167 405.327,-390.167 399.327,-390.167"/>
<polyline fill="none" stroke="black" points="399.327,-390.167 233.327,-390.167 "/>
<path fill="none" stroke="black" d="M233.327,-390.167C227.327,-390.167 221.327,-384.167 221.327,-378.167"/>
<polyline fill="none" stroke="black" points="221.327,-378.167 221.327,-242.167 "/>
<path fill="none" stroke="black" d="M221.327,-242.167C221.327,-236.167 227.327,-230.167 233.327,-230.167"/>
<text text-anchor="middle" x="316.327" y="-373.567" font-family="Times Roman,serif" font-size="14.00">User</text>
<polyline fill="none" stroke="black" points="221.327,-364.167 411.327,-364.167 "/>
<text text-anchor="start" x="229.327" y="-347.567" font-family="Times Roman,serif" font-size="14.00">first_name :string</text>
<text text-anchor="start" x="229.327" y="-329.567" font-family="Times Roman,serif" font-size="14.00">last_name :string</text>
<text text-anchor="start" x="229.327" y="-311.567" font-family="Times Roman,serif" font-size="14.00">email :string</text>
<text text-anchor="start" x="229.327" y="-293.567" font-family="Times Roman,serif" font-size="14.00">mobile_number :integer</text>
<text text-anchor="start" x="229.327" y="-275.567" font-family="Times Roman,serif" font-size="14.00">landline_number :integer</text>
<text text-anchor="start" x="229.327" y="-257.567" font-family="Times Roman,serif" font-size="14.00">created_at :datetime</text>
<text text-anchor="start" x="229.327" y="-239.567" font-family="Times Roman,serif" font-size="14.00">updated_at :datetime</text>
</g>
<!-- Wishlist -->
<g id="node9" class="node"><title>Wishlist</title>
<polyline fill="none" stroke="black" points="899.476,-99.6067 946.476,-99.6067 "/>
<path fill="none" stroke="black" d="M946.476,-99.6067C952.476,-99.6067 958.476,-105.607 958.476,-111.607"/>
<polyline fill="none" stroke="black" points="958.476,-111.607 958.476,-137.607 "/>
<path fill="none" stroke="black" d="M958.476,-137.607C958.476,-143.607 952.476,-149.607 946.476,-149.607"/>
<polyline fill="none" stroke="black" points="946.476,-149.607 899.476,-149.607 "/>
<path fill="none" stroke="black" d="M899.476,-149.607C893.476,-149.607 887.476,-143.607 887.476,-137.607"/>
<polyline fill="none" stroke="black" points="887.476,-137.607 887.476,-111.607 "/>
<path fill="none" stroke="black" d="M887.476,-111.607C887.476,-105.607 893.476,-99.6067 899.476,-99.6067"/>
<text text-anchor="middle" x="922.976" y="-133.007" font-family="Times Roman,serif" font-size="14.00">Wishlist</text>
<polyline fill="none" stroke="black" points="887.476,-123.607 958.476,-123.607 "/>
</g>
<!-- User&#45;&gt;Wishlist -->
<g id="edge20" class="edge"><title>User&#45;&gt;Wishlist</title>
<path fill="none" stroke="black" d="M406.231,-223.576C433.922,-201.603 465.853,-180.492 498.817,-167.238 629.336,-114.759 799.867,-116.708 879.043,-121.191"/>
<polygon fill="black" stroke="black" points="405.935,-223.815 395.329,-226.601 402.046,-226.958 398.158,-230.101 398.158,-230.101 398.158,-230.101 402.046,-226.958 400.987,-233.601 405.935,-223.815 405.935,-223.815"/>
<ellipse fill="black" stroke="black" cx="883.335" cy="-121.449" rx="4" ry="4"/>
</g>
<!-- Service -->
<g id="node10" class="node"><title>Service</title>
<polyline fill="none" stroke="black" points="356.213,-3.34742 454.213,-3.34742 "/>
<path fill="none" stroke="black" d="M454.213,-3.34742C460.213,-3.34742 466.213,-9.34742 466.213,-15.3474"/>
<polyline fill="none" stroke="black" points="466.213,-15.3474 466.213,-97.3474 "/>
<path fill="none" stroke="black" d="M466.213,-97.3474C466.213,-103.347 460.213,-109.347 454.213,-109.347"/>
<polyline fill="none" stroke="black" points="454.213,-109.347 356.213,-109.347 "/>
<path fill="none" stroke="black" d="M356.213,-109.347C350.213,-109.347 344.213,-103.347 344.213,-97.3474"/>
<polyline fill="none" stroke="black" points="344.213,-97.3474 344.213,-15.3474 "/>
<path fill="none" stroke="black" d="M344.213,-15.3474C344.213,-9.34742 350.213,-3.34742 356.213,-3.34742"/>
<text text-anchor="middle" x="405.213" y="-92.7474" font-family="Times Roman,serif" font-size="14.00">Service</text>
<polyline fill="none" stroke="black" points="344.213,-83.3474 466.213,-83.3474 "/>
<text text-anchor="start" x="352.213" y="-66.7474" font-family="Times Roman,serif" font-size="14.00">provider :string</text>
<text text-anchor="start" x="352.213" y="-48.7474" font-family="Times Roman,serif" font-size="14.00">uid :string</text>
<text text-anchor="start" x="352.213" y="-30.7474" font-family="Times Roman,serif" font-size="14.00">uname :string</text>
<text text-anchor="start" x="352.213" y="-12.7474" font-family="Times Roman,serif" font-size="14.00">uemail :string</text>
</g>
<!-- User&#45;&gt;Service -->
<g id="edge14" class="edge"><title>User&#45;&gt;Service</title>
<path fill="none" stroke="black" d="M347.876,-220.078C359.796,-186.039 373.071,-148.132 383.843,-117.371"/>
<polygon fill="black" stroke="black" points="347.756,-220.419 340.204,-228.37 346.104,-225.138 344.451,-229.857 344.451,-229.857 344.451,-229.857 346.104,-225.138 348.698,-231.345 347.756,-220.419 347.756,-220.419"/>
<ellipse fill="black" stroke="black" cx="385.204" cy="-113.486" rx="4.00001" ry="4.00001"/>
</g>
<!-- Order -->
<g id="node13" class="node"><title>Order</title>
<polyline fill="none" stroke="black" points="447.721,-363.329 596.721,-363.329 "/>
<path fill="none" stroke="black" d="M596.721,-363.329C602.721,-363.329 608.721,-369.329 608.721,-375.329"/>
<polyline fill="none" stroke="black" points="608.721,-375.329 608.721,-529.329 "/>
<path fill="none" stroke="black" d="M608.721,-529.329C608.721,-535.329 602.721,-541.329 596.721,-541.329"/>
<polyline fill="none" stroke="black" points="596.721,-541.329 447.721,-541.329 "/>
<path fill="none" stroke="black" d="M447.721,-541.329C441.721,-541.329 435.721,-535.329 435.721,-529.329"/>
<polyline fill="none" stroke="black" points="435.721,-529.329 435.721,-375.329 "/>
<path fill="none" stroke="black" d="M435.721,-375.329C435.721,-369.329 441.721,-363.329 447.721,-363.329"/>
<text text-anchor="middle" x="522.221" y="-524.729" font-family="Times Roman,serif" font-size="14.00">Order</text>
<polyline fill="none" stroke="black" points="435.721,-515.329 608.721,-515.329 "/>
<text text-anchor="start" x="443.721" y="-498.729" font-family="Times Roman,serif" font-size="14.00">total_quantity :integer</text>
<text text-anchor="start" x="443.721" y="-480.729" font-family="Times Roman,serif" font-size="14.00">total_price :integer</text>
<text text-anchor="start" x="443.721" y="-462.729" font-family="Times Roman,serif" font-size="14.00">pay_type :string</text>
<text text-anchor="start" x="443.721" y="-444.729" font-family="Times Roman,serif" font-size="14.00">recipient :string</text>
<text text-anchor="start" x="443.721" y="-426.729" font-family="Times Roman,serif" font-size="14.00">address :text</text>
<text text-anchor="start" x="443.721" y="-408.729" font-family="Times Roman,serif" font-size="14.00">pincode :string</text>
<text text-anchor="start" x="443.721" y="-390.729" font-family="Times Roman,serif" font-size="14.00">created_at :datetime</text>
<text text-anchor="start" x="443.721" y="-372.729" font-family="Times Roman,serif" font-size="14.00">updated_at :datetime</text>
</g>
<!-- User&#45;&gt;Order -->
<g id="edge16" class="edge"><title>User&#45;&gt;Order</title>
<path fill="none" stroke="black" d="M419.712,-381.55C422.675,-383.597 425.639,-385.643 428.592,-387.681"/>
<polygon fill="black" stroke="black" points="419.668,-381.52 413.996,-372.135 415.554,-378.679 411.439,-375.838 411.439,-375.838 411.439,-375.838 415.554,-378.679 408.882,-379.541 419.668,-381.52 419.668,-381.52"/>
<ellipse fill="black" stroke="black" cx="432.167" cy="-390.15" rx="4.00002" ry="4.00002"/>
</g>
<!-- UserDetail -->
<g id="node16" class="node"><title>UserDetail</title>
<polyline fill="none" stroke="black" points="13,-404.591 107,-404.591 "/>
<path fill="none" stroke="black" d="M107,-404.591C113,-404.591 119,-410.591 119,-416.591"/>
<polyline fill="none" stroke="black" points="119,-416.591 119,-480.591 "/>
<path fill="none" stroke="black" d="M119,-480.591C119,-486.591 113,-492.591 107,-492.591"/>
<polyline fill="none" stroke="black" points="107,-492.591 13,-492.591 "/>
<path fill="none" stroke="black" d="M13,-492.591C7,-492.591 1,-486.591 1,-480.591"/>
<polyline fill="none" stroke="black" points="1,-480.591 1,-416.591 "/>
<path fill="none" stroke="black" d="M1,-416.591C1,-410.591 7,-404.591 13,-404.591"/>
<text text-anchor="middle" x="60" y="-475.991" font-family="Times Roman,serif" font-size="14.00">UserDetail</text>
<polyline fill="none" stroke="black" points="1,-466.591 119,-466.591 "/>
<text text-anchor="start" x="9" y="-449.991" font-family="Times Roman,serif" font-size="14.00">label :string</text>
<text text-anchor="start" x="9" y="-431.991" font-family="Times Roman,serif" font-size="14.00">address :text</text>
<text text-anchor="start" x="9" y="-413.991" font-family="Times Roman,serif" font-size="14.00">pincode :string</text>
</g>
<!-- User&#45;&gt;UserDetail -->
<g id="edge18" class="edge"><title>User&#45;&gt;UserDetail</title>
<path fill="none" stroke="black" d="M212.361,-366.312C183.373,-381.966 152.671,-398.546 126.481,-412.689"/>
<polygon fill="black" stroke="black" points="212.446,-366.266 223.383,-365.474 216.845,-363.89 221.245,-361.514 221.245,-361.514 221.245,-361.514 216.845,-363.89 219.106,-357.555 212.446,-366.266 212.446,-366.266"/>
<ellipse fill="black" stroke="black" cx="122.739" cy="-414.71" rx="4.00002" ry="4.00002"/>
</g>
<!-- Review -->
<g id="node23" class="node"><title>Review</title>
<polyline fill="none" stroke="black" points="681.449,-333.621 822.449,-333.621 "/>
<path fill="none" stroke="black" d="M822.449,-333.621C828.449,-333.621 834.449,-339.621 834.449,-345.621"/>
<polyline fill="none" stroke="black" points="834.449,-345.621 834.449,-409.621 "/>
<path fill="none" stroke="black" d="M834.449,-409.621C834.449,-415.621 828.449,-421.621 822.449,-421.621"/>
<polyline fill="none" stroke="black" points="822.449,-421.621 681.449,-421.621 "/>
<path fill="none" stroke="black" d="M681.449,-421.621C675.449,-421.621 669.449,-415.621 669.449,-409.621"/>
<polyline fill="none" stroke="black" points="669.449,-409.621 669.449,-345.621 "/>
<path fill="none" stroke="black" d="M669.449,-345.621C669.449,-339.621 675.449,-333.621 681.449,-333.621"/>
<text text-anchor="middle" x="751.949" y="-405.021" font-family="Times Roman,serif" font-size="14.00">Review</text>
<polyline fill="none" stroke="black" points="669.449,-395.621 834.449,-395.621 "/>
<text text-anchor="start" x="677.449" y="-379.021" font-family="Times Roman,serif" font-size="14.00">body :text</text>
<text text-anchor="start" x="677.449" y="-361.021" font-family="Times Roman,serif" font-size="14.00">created_at :datetime</text>
<text text-anchor="start" x="677.449" y="-343.021" font-family="Times Roman,serif" font-size="14.00">updated_at :datetime</text>
</g>
<!-- User&#45;&gt;Review -->
<g id="edge12" class="edge"><title>User&#45;&gt;Review</title>
<path fill="none" stroke="black" d="M421.474,-326.449C494.71,-337.789 591.395,-352.76 661.248,-363.576"/>
<polygon fill="black" stroke="black" points="421.27,-326.417 412.076,-320.44 416.329,-325.652 411.388,-324.887 411.388,-324.887 411.388,-324.887 416.329,-325.652 410.699,-329.334 421.27,-326.417 421.27,-326.417"/>
<ellipse fill="black" stroke="black" cx="665.249" cy="-364.196" rx="4.00001" ry="4.00001"/>
</g>
<!-- Image -->
<g id="node8" class="node"><title>Image</title>
<polyline fill="none" stroke="black" points="1142.57,-273.724 1283.57,-273.724 "/>
<path fill="none" stroke="black" d="M1283.57,-273.724C1289.57,-273.724 1295.57,-279.724 1295.57,-285.724"/>
<polyline fill="none" stroke="black" points="1295.57,-285.724 1295.57,-349.724 "/>
<path fill="none" stroke="black" d="M1295.57,-349.724C1295.57,-355.724 1289.57,-361.724 1283.57,-361.724"/>
<polyline fill="none" stroke="black" points="1283.57,-361.724 1142.57,-361.724 "/>
<path fill="none" stroke="black" d="M1142.57,-361.724C1136.57,-361.724 1130.57,-355.724 1130.57,-349.724"/>
<polyline fill="none" stroke="black" points="1130.57,-349.724 1130.57,-285.724 "/>
<path fill="none" stroke="black" d="M1130.57,-285.724C1130.57,-279.724 1136.57,-273.724 1142.57,-273.724"/>
<text text-anchor="middle" x="1213.07" y="-345.124" font-family="Times Roman,serif" font-size="14.00">Image</text>
<polyline fill="none" stroke="black" points="1130.57,-335.724 1295.57,-335.724 "/>
<text text-anchor="start" x="1138.57" y="-319.124" font-family="Times Roman,serif" font-size="14.00">name :string</text>
<text text-anchor="start" x="1138.57" y="-301.124" font-family="Times Roman,serif" font-size="14.00">created_at :datetime</text>
<text text-anchor="start" x="1138.57" y="-283.124" font-family="Times Roman,serif" font-size="14.00">updated_at :datetime</text>
</g>
<!-- Complaint -->
<g id="node11" class="node"><title>Complaint</title>
<polyline fill="none" stroke="black" points="20.0297,-48.8691 161.03,-48.8691 "/>
<path fill="none" stroke="black" d="M161.03,-48.8691C167.03,-48.8691 173.03,-54.8691 173.03,-60.8691"/>
<polyline fill="none" stroke="black" points="173.03,-60.8691 173.03,-142.869 "/>
<path fill="none" stroke="black" d="M173.03,-142.869C173.03,-148.869 167.03,-154.869 161.03,-154.869"/>
<polyline fill="none" stroke="black" points="161.03,-154.869 20.0297,-154.869 "/>
<path fill="none" stroke="black" d="M20.0297,-154.869C14.0297,-154.869 8.0297,-148.869 8.0297,-142.869"/>
<polyline fill="none" stroke="black" points="8.0297,-142.869 8.0297,-60.8691 "/>
<path fill="none" stroke="black" d="M8.0297,-60.8691C8.0297,-54.8691 14.0297,-48.8691 20.0297,-48.8691"/>
<text text-anchor="middle" x="90.5297" y="-138.269" font-family="Times Roman,serif" font-size="14.00">Complaint</text>
<polyline fill="none" stroke="black" points="8.0297,-128.869 173.03,-128.869 "/>
<text text-anchor="start" x="16.0297" y="-112.269" font-family="Times Roman,serif" font-size="14.00">problem :text</text>
<text text-anchor="start" x="16.0297" y="-94.2691" font-family="Times Roman,serif" font-size="14.00">status :string</text>
<text text-anchor="start" x="16.0297" y="-76.2691" font-family="Times Roman,serif" font-size="14.00">created_at :datetime</text>
<text text-anchor="start" x="16.0297" y="-58.2691" font-family="Times Roman,serif" font-size="14.00">updated_at :datetime</text>
</g>
<!-- Enquiry -->
<g id="node12" class="node"><title>Enquiry</title>
<polyline fill="none" stroke="black" points="363,-981.5 516,-981.5 "/>
<path fill="none" stroke="black" d="M516,-981.5C522,-981.5 528,-987.5 528,-993.5"/>
<polyline fill="none" stroke="black" points="528,-993.5 528,-1093.5 "/>
<path fill="none" stroke="black" d="M528,-1093.5C528,-1099.5 522,-1105.5 516,-1105.5"/>
<polyline fill="none" stroke="black" points="516,-1105.5 363,-1105.5 "/>
<path fill="none" stroke="black" d="M363,-1105.5C357,-1105.5 351,-1099.5 351,-1093.5"/>
<polyline fill="none" stroke="black" points="351,-1093.5 351,-993.5 "/>
<path fill="none" stroke="black" d="M351,-993.5C351,-987.5 357,-981.5 363,-981.5"/>
<text text-anchor="middle" x="439.5" y="-1088.9" font-family="Times Roman,serif" font-size="14.00">Enquiry</text>
<polyline fill="none" stroke="black" points="351,-1079.5 528,-1079.5 "/>
<text text-anchor="start" x="359" y="-1062.9" font-family="Times Roman,serif" font-size="14.00">email :string</text>
<text text-anchor="start" x="359" y="-1044.9" font-family="Times Roman,serif" font-size="14.00">contact_number :string</text>
<text text-anchor="start" x="359" y="-1026.9" font-family="Times Roman,serif" font-size="14.00">content :text</text>
<text text-anchor="start" x="359" y="-1008.9" font-family="Times Roman,serif" font-size="14.00">created_at :datetime</text>
<text text-anchor="start" x="359" y="-990.9" font-family="Times Roman,serif" font-size="14.00">updated_at :datetime</text>
</g>
<!-- Order&#45;&gt;Delivery -->
<g id="edge26" class="edge"><title>Order&#45;&gt;Delivery</title>
<path fill="none" stroke="black" d="M551.954,-353.265C555.261,-342.246 558.596,-331.134 561.814,-320.412"/>
<polygon fill="black" stroke="black" points="551.847,-353.62 544.663,-361.904 550.41,-358.409 548.973,-363.198 548.973,-363.198 548.973,-363.198 550.41,-358.409 553.283,-364.491 551.847,-353.62 551.847,-353.62"/>
<ellipse fill="black" stroke="black" cx="562.985" cy="-316.512" rx="4.00001" ry="4.00001"/>
</g>
<!-- Order&#45;&gt;OrderItem -->
<g id="edge28" class="edge"><title>Order&#45;&gt;OrderItem</title>
<path fill="none" stroke="black" d="M517.008,-551.895C515.541,-579.927 514.042,-608.562 512.924,-629.92"/>
<polygon fill="black" stroke="black" points="517.023,-551.614 522.04,-541.863 517.285,-546.62 517.546,-541.627 517.546,-541.627 517.546,-541.627 517.285,-546.62 513.052,-541.392 517.023,-551.614 517.023,-551.614"/>
<ellipse fill="black" stroke="black" cx="512.709" cy="-634.028" rx="4" ry="4"/>
</g>
<!-- Order&#45;&gt;Complaint -->
<g id="edge24" class="edge"><title>Order&#45;&gt;Complaint</title>
<path fill="none" stroke="black" d="M493.634,-353.698C476.703,-310.005 451.218,-260.926 414.527,-226.967 349.44,-166.728 252.194,-134.414 181.226,-117.822"/>
<polygon fill="black" stroke="black" points="493.697,-353.864 493.014,-364.808 495.46,-358.542 497.224,-363.221 497.224,-363.221 497.224,-363.221 495.46,-358.542 501.435,-361.634 493.697,-353.864 493.697,-353.864"/>
<ellipse fill="black" stroke="black" cx="177.041" cy="-116.865" rx="4.00001" ry="4.00001"/>
</g>
<!-- Order&#45;&gt;CouponCode -->
<g id="edge22" class="edge"><title>Order&#45;&gt;CouponCode</title>
<path fill="none" stroke="black" d="M616.746,-529.888C618.544,-531.364 620.345,-532.842 622.148,-534.321"/>
<polygon fill="black" stroke="black" points="616.539,-529.719 611.663,-519.897 612.674,-526.547 608.809,-523.376 608.809,-523.376 608.809,-523.376 612.674,-526.547 605.954,-526.855 616.539,-529.719 616.539,-529.719"/>
<polygon fill="black" stroke="black" points="622.322,-534.463 627.198,-544.285 626.187,-537.635 630.052,-540.807 630.052,-540.807 630.052,-540.807 626.187,-537.635 632.907,-537.328 622.322,-534.463 622.322,-534.463"/>
</g>
<!-- Admin -->
<g id="node14" class="node"><title>Admin</title>
<polyline fill="none" stroke="black" points="894.144,-356.247 1035.14,-356.247 "/>
<path fill="none" stroke="black" d="M1035.14,-356.247C1041.14,-356.247 1047.14,-362.247 1047.14,-368.247"/>
<polyline fill="none" stroke="black" points="1047.14,-368.247 1047.14,-432.247 "/>
<path fill="none" stroke="black" d="M1047.14,-432.247C1047.14,-438.247 1041.14,-444.247 1035.14,-444.247"/>
<polyline fill="none" stroke="black" points="1035.14,-444.247 894.144,-444.247 "/>
<path fill="none" stroke="black" d="M894.144,-444.247C888.144,-444.247 882.144,-438.247 882.144,-432.247"/>
<polyline fill="none" stroke="black" points="882.144,-432.247 882.144,-368.247 "/>
<path fill="none" stroke="black" d="M882.144,-368.247C882.144,-362.247 888.144,-356.247 894.144,-356.247"/>
<text text-anchor="middle" x="964.644" y="-427.647" font-family="Times Roman,serif" font-size="14.00">Admin</text>
<polyline fill="none" stroke="black" points="882.144,-418.247 1047.14,-418.247 "/>
<text text-anchor="start" x="890.144" y="-401.647" font-family="Times Roman,serif" font-size="14.00">email :string</text>
<text text-anchor="start" x="890.144" y="-383.647" font-family="Times Roman,serif" font-size="14.00">created_at :datetime</text>
<text text-anchor="start" x="890.144" y="-365.647" font-family="Times Roman,serif" font-size="14.00">updated_at :datetime</text>
</g>
<!-- Admin&#45;&gt;Delivery -->
<g id="edge38" class="edge"><title>Admin&#45;&gt;Delivery</title>
<path fill="none" stroke="black" d="M880.022,-351.235C866.058,-343.87 851.589,-336.663 837.649,-330.421 785.572,-307.102 725.374,-285.661 676.861,-269.671"/>
<polygon fill="black" stroke="black" points="880.293,-351.38 886.996,-360.059 884.704,-353.734 889.115,-356.089 889.115,-356.089 889.115,-356.089 884.704,-353.734 891.234,-352.119 880.293,-351.38 880.293,-351.38"/>
<ellipse fill="black" stroke="black" cx="672.979" cy="-268.398" rx="4.00001" ry="4.00001"/>
</g>
<!-- Admin&#45;&gt;Image -->
<g id="edge30" class="edge"><title>Admin&#45;&gt;Image</title>
<path fill="none" stroke="black" d="M1057.17,-369.51C1078.54,-362.414 1101.24,-354.873 1122.51,-347.805"/>
<polygon fill="black" stroke="black" points="1056.86,-369.616 1045.95,-368.498 1052.11,-371.192 1047.37,-372.768 1047.37,-372.768 1047.37,-372.768 1052.11,-371.192 1048.78,-377.039 1056.86,-369.616 1056.86,-369.616"/>
<ellipse fill="black" stroke="black" cx="1126.49" cy="-346.485" rx="4.00001" ry="4.00001"/>
</g>
<!-- StaticPage -->
<g id="node18" class="node"><title>StaticPage</title>
<polyline fill="none" stroke="black" points="1119.47,-9.09259 1260.47,-9.09259 "/>
<path fill="none" stroke="black" d="M1260.47,-9.09259C1266.47,-9.09259 1272.47,-15.0926 1272.47,-21.0926"/>
<polyline fill="none" stroke="black" points="1272.47,-21.0926 1272.47,-103.093 "/>
<path fill="none" stroke="black" d="M1272.47,-103.093C1272.47,-109.093 1266.47,-115.093 1260.47,-115.093"/>
<polyline fill="none" stroke="black" points="1260.47,-115.093 1119.47,-115.093 "/>
<path fill="none" stroke="black" d="M1119.47,-115.093C1113.47,-115.093 1107.47,-109.093 1107.47,-103.093"/>
<polyline fill="none" stroke="black" points="1107.47,-103.093 1107.47,-21.0926 "/>
<path fill="none" stroke="black" d="M1107.47,-21.0926C1107.47,-15.0926 1113.47,-9.09259 1119.47,-9.09259"/>
<text text-anchor="middle" x="1189.97" y="-98.4926" font-family="Times Roman,serif" font-size="14.00">StaticPage</text>
<polyline fill="none" stroke="black" points="1107.47,-89.0926 1272.47,-89.0926 "/>
<text text-anchor="start" x="1115.47" y="-72.4926" font-family="Times Roman,serif" font-size="14.00">name :string</text>
<text text-anchor="start" x="1115.47" y="-54.4926" font-family="Times Roman,serif" font-size="14.00">content :text</text>
<text text-anchor="start" x="1115.47" y="-36.4926" font-family="Times Roman,serif" font-size="14.00">created_at :datetime</text>
<text text-anchor="start" x="1115.47" y="-18.4926" font-family="Times Roman,serif" font-size="14.00">updated_at :datetime</text>
</g>
<!-- Admin&#45;&gt;StaticPage -->
<g id="edge34" class="edge"><title>Admin&#45;&gt;StaticPage</title>
<path fill="none" stroke="black" d="M999.862,-347.395C1040.56,-286.311 1107.4,-186.012 1150.01,-122.062"/>
<polygon fill="black" stroke="black" points="999.647,-347.718 990.357,-353.544 996.874,-351.879 994.102,-356.04 994.102,-356.04 994.102,-356.04 996.874,-351.879 997.846,-358.535 999.647,-347.718 999.647,-347.718"/>
<ellipse fill="black" stroke="black" cx="1152.35" cy="-118.549" rx="4.00002" ry="4.00002"/>
</g>
<!-- Product -->
<g id="node20" class="node"><title>Product</title>
<polyline fill="none" stroke="black" points="862.168,-523.484 1052.17,-523.484 "/>
<path fill="none" stroke="black" d="M1052.17,-523.484C1058.17,-523.484 1064.17,-529.484 1064.17,-535.484"/>
<polyline fill="none" stroke="black" points="1064.17,-535.484 1064.17,-743.484 "/>
<path fill="none" stroke="black" d="M1064.17,-743.484C1064.17,-749.484 1058.17,-755.484 1052.17,-755.484"/>
<polyline fill="none" stroke="black" points="1052.17,-755.484 862.168,-755.484 "/>
<path fill="none" stroke="black" d="M862.168,-755.484C856.168,-755.484 850.168,-749.484 850.168,-743.484"/>
<polyline fill="none" stroke="black" points="850.168,-743.484 850.168,-535.484 "/>
<path fill="none" stroke="black" d="M850.168,-535.484C850.168,-529.484 856.168,-523.484 862.168,-523.484"/>
<text text-anchor="middle" x="957.168" y="-738.884" font-family="Times Roman,serif" font-size="14.00">Product</text>
<polyline fill="none" stroke="black" points="850.168,-729.484 1064.17,-729.484 "/>
<text text-anchor="start" x="858.168" y="-712.884" font-family="Times Roman,serif" font-size="14.00">name :string</text>
<text text-anchor="start" x="858.168" y="-694.884" font-family="Times Roman,serif" font-size="14.00">product_code :string</text>
<text text-anchor="start" x="858.168" y="-676.884" font-family="Times Roman,serif" font-size="14.00">description :text</text>
<text text-anchor="start" x="858.168" y="-658.884" font-family="Times Roman,serif" font-size="14.00">price :integer</text>
<text text-anchor="start" x="858.168" y="-640.884" font-family="Times Roman,serif" font-size="14.00">discount :integer</text>
<text text-anchor="start" x="858.168" y="-622.884" font-family="Times Roman,serif" font-size="14.00">delivery_min_range :integer</text>
<text text-anchor="start" x="858.168" y="-604.884" font-family="Times Roman,serif" font-size="14.00">delivery_max_range :integer</text>
<text text-anchor="start" x="858.168" y="-586.884" font-family="Times Roman,serif" font-size="14.00">stock :integer</text>
<text text-anchor="start" x="858.168" y="-568.884" font-family="Times Roman,serif" font-size="14.00">reorder_level :integer</text>
<text text-anchor="start" x="858.168" y="-550.884" font-family="Times Roman,serif" font-size="14.00">created_at :datetime</text>
<text text-anchor="start" x="858.168" y="-532.884" font-family="Times Roman,serif" font-size="14.00">updated_at :datetime</text>
</g>
<!-- Admin&#45;&gt;Product -->
<g id="edge32" class="edge"><title>Admin&#45;&gt;Product</title>
<path fill="none" stroke="black" d="M962.949,-454.479C962.38,-472.691 961.72,-493.822 961.053,-515.153"/>
<polygon fill="black" stroke="black" points="962.952,-454.401 967.762,-444.546 963.108,-449.403 963.264,-444.406 963.264,-444.406 963.264,-444.406 963.108,-449.403 958.766,-444.265 962.952,-454.401 962.952,-454.401"/>
<ellipse fill="black" stroke="black" cx="960.923" cy="-519.335" rx="4" ry="4"/>
</g>
<!-- Admin&#45;&gt;CouponCode -->
<g id="edge36" class="edge"><title>Admin&#45;&gt;CouponCode</title>
<path fill="none" stroke="black" d="M909.827,-451.342C883.138,-476.219 850.321,-506.808 819.935,-535.13"/>
<polygon fill="black" stroke="black" points="909.969,-451.21 920.352,-447.683 913.626,-447.8 917.284,-444.391 917.284,-444.391 917.284,-444.391 913.626,-447.8 914.216,-441.099 909.969,-451.21 909.969,-451.21"/>
<ellipse fill="black" stroke="black" cx="816.819" cy="-538.034" rx="4.00002" ry="4.00002"/>
</g>
<!-- State&#45;&gt;Order -->
<g id="edge40" class="edge"><title>State&#45;&gt;Order</title>
<path fill="none" stroke="black" d="M367.39,-833.232C383.422,-787.133 412.778,-704.577 440.921,-635.142 452.36,-606.921 465.499,-576.59 477.831,-548.904"/>
<polygon fill="black" stroke="black" points="367.359,-833.323 359.831,-841.297 365.721,-838.047 364.082,-842.771 364.082,-842.771 364.082,-842.771 365.721,-838.047 368.334,-844.246 367.359,-833.323 367.359,-833.323"/>
<ellipse fill="black" stroke="black" cx="479.485" cy="-545.201" rx="4.00002" ry="4.00002"/>
</g>
<!-- State&#45;&gt;UserDetail -->
<g id="edge42" class="edge"><title>State&#45;&gt;UserDetail</title>
<path fill="none" stroke="black" d="M330.828,-834.334C278.817,-760.254 156.485,-586.015 95.6472,-499.363"/>
<polygon fill="black" stroke="black" points="330.914,-834.456 332.977,-845.226 333.787,-838.549 336.66,-842.641 336.66,-842.641 336.66,-842.641 333.787,-838.549 340.343,-840.055 330.914,-834.456 330.914,-834.456"/>
<ellipse fill="black" stroke="black" cx="93.3184" cy="-496.046" rx="4.00002" ry="4.00002"/>
</g>
<!-- City -->
<g id="node24" class="node"><title>City</title>
<polyline fill="none" stroke="black" points="246.967,-563.078 326.967,-563.078 "/>
<path fill="none" stroke="black" d="M326.967,-563.078C332.967,-563.078 338.967,-569.078 338.967,-575.078"/>
<polyline fill="none" stroke="black" points="338.967,-575.078 338.967,-603.078 "/>
<path fill="none" stroke="black" d="M338.967,-603.078C338.967,-609.078 332.967,-615.078 326.967,-615.078"/>
<polyline fill="none" stroke="black" points="326.967,-615.078 246.967,-615.078 "/>
<path fill="none" stroke="black" d="M246.967,-615.078C240.967,-615.078 234.967,-609.078 234.967,-603.078"/>
<polyline fill="none" stroke="black" points="234.967,-603.078 234.967,-575.078 "/>
<path fill="none" stroke="black" d="M234.967,-575.078C234.967,-569.078 240.967,-563.078 246.967,-563.078"/>
<text text-anchor="middle" x="286.967" y="-598.478" font-family="Times Roman,serif" font-size="14.00">City</text>
<polyline fill="none" stroke="black" points="234.967,-589.078 338.967,-589.078 "/>
<text text-anchor="start" x="242.967" y="-572.478" font-family="Times Roman,serif" font-size="14.00">name :string</text>
</g>
<!-- State&#45;&gt;City -->
<g id="edge44" class="edge"><title>State&#45;&gt;City</title>
<path fill="none" stroke="black" d="M346.325,-832.815C333.068,-778.38 308.148,-676.054 295.219,-622.965"/>
<polygon fill="black" stroke="black" points="346.404,-833.142 344.398,-843.923 347.588,-838 348.771,-842.858 348.771,-842.858 348.771,-842.858 347.588,-838 353.143,-841.793 346.404,-833.142 346.404,-833.142"/>
<ellipse fill="black" stroke="black" cx="294.272" cy="-619.077" rx="4.00001" ry="4.00001"/>
</g>
<!-- PageRequest -->
<g id="node17" class="node"><title>PageRequest</title>
<polyline fill="none" stroke="black" points="1203,-1051.5 1353,-1051.5 "/>
<path fill="none" stroke="black" d="M1353,-1051.5C1359,-1051.5 1365,-1057.5 1365,-1063.5"/>
<polyline fill="none" stroke="black" points="1365,-1063.5 1365,-1163.5 "/>
<path fill="none" stroke="black" d="M1365,-1163.5C1365,-1169.5 1359,-1175.5 1353,-1175.5"/>
<polyline fill="none" stroke="black" points="1353,-1175.5 1203,-1175.5 "/>
<path fill="none" stroke="black" d="M1203,-1175.5C1197,-1175.5 1191,-1169.5 1191,-1163.5"/>
<polyline fill="none" stroke="black" points="1191,-1163.5 1191,-1063.5 "/>
<path fill="none" stroke="black" d="M1191,-1063.5C1191,-1057.5 1197,-1051.5 1203,-1051.5"/>
<text text-anchor="middle" x="1278" y="-1158.9" font-family="Times Roman,serif" font-size="14.00">PageRequest</text>
<polyline fill="none" stroke="black" points="1191,-1149.5 1365,-1149.5 "/>
<text text-anchor="start" x="1199" y="-1132.9" font-family="Times Roman,serif" font-size="14.00">path :string</text>
<text text-anchor="start" x="1199" y="-1114.9" font-family="Times Roman,serif" font-size="14.00">page_duration :integer</text>
<text text-anchor="start" x="1199" y="-1096.9" font-family="Times Roman,serif" font-size="14.00">db_duration :integer</text>
<text text-anchor="start" x="1199" y="-1078.9" font-family="Times Roman,serif" font-size="14.00">created_at :datetime</text>
<text text-anchor="start" x="1199" y="-1060.9" font-family="Times Roman,serif" font-size="14.00">updated_at :datetime</text>
</g>
<!-- Product&#45;&gt;OrderItem -->
<g id="edge60" class="edge"><title>Product&#45;&gt;OrderItem</title>
<path fill="none" stroke="black" d="M840.155,-704.04C839.936,-704.097 839.718,-704.153 839.499,-704.21 743.332,-728.913 713.757,-722.129 616.099,-704.21 602.795,-701.768 588.991,-697.722 575.936,-693.12"/>
<polygon fill="black" stroke="black" points="840.414,-703.964 851.276,-705.463 845.211,-702.555 850.008,-701.146 850.008,-701.146 850.008,-701.146 845.211,-702.555 848.74,-696.828 840.414,-703.964 840.414,-703.964"/>
<ellipse fill="black" stroke="black" cx="572.103" cy="-691.723" rx="4.00001" ry="4.00001"/>
</g>
<!-- Product&#45;&gt;Purchase -->
<g id="edge50" class="edge"><title>Product&#45;&gt;Purchase</title>
<path fill="none" stroke="black" d="M1071.63,-743.578C1091.31,-761.472 1111.12,-779.488 1128.88,-795.639"/>
<polygon fill="black" stroke="black" points="1071.62,-743.562 1067.25,-733.504 1067.92,-740.198 1064.22,-736.834 1064.22,-736.834 1064.22,-736.834 1067.92,-740.198 1061.19,-740.163 1071.62,-743.562 1071.62,-743.562"/>
<ellipse fill="black" stroke="black" cx="1131.86" cy="-798.35" rx="4.00002" ry="4.00002"/>
</g>
<!-- Product&#45;&gt;Image -->
<g id="edge48" class="edge"><title>Product&#45;&gt;Image</title>
<path fill="none" stroke="black" d="M1055.85,-515.4C1096.45,-464.357 1141.2,-408.092 1172.54,-368.686"/>
<polygon fill="black" stroke="black" points="1055.78,-515.495 1046.03,-520.52 1052.67,-519.408 1049.55,-523.321 1049.55,-523.321 1049.55,-523.321 1052.67,-519.408 1053.08,-526.122 1055.78,-515.495 1055.78,-515.495"/>
<ellipse fill="black" stroke="black" cx="1175.35" cy="-365.151" rx="4.00002" ry="4.00002"/>
</g>
<!-- Product&#45;&gt;Wishlist -->
<g id="edge56" class="edge"><title>Product&#45;&gt;Wishlist</title>
<path fill="none" stroke="black" d="M897.985,-513.815C890.096,-492.115 883.253,-469.451 878.944,-447.447 858.383,-342.469 892.225,-216.421 911.316,-157.714"/>
<polygon fill="black" stroke="black" points="898.057,-514.011 897.334,-524.953 899.804,-518.696 901.55,-523.381 901.55,-523.381 901.55,-523.381 899.804,-518.696 905.767,-521.809 898.057,-514.011 898.057,-514.011"/>
<ellipse fill="black" stroke="black" cx="912.648" cy="-153.684" rx="4.00001" ry="4.00001"/>
</g>
<!-- Product&#45;&gt;CartItem -->
<g id="edge52" class="edge"><title>Product&#45;&gt;CartItem</title>
<path fill="none" stroke="black" d="M1074.35,-612.636C1097.55,-607.321 1121.32,-601.876 1142.66,-596.985"/>
<polygon fill="black" stroke="black" points="1074.12,-612.69 1063.36,-610.537 1069.24,-613.807 1064.37,-614.923 1064.37,-614.923 1064.37,-614.923 1069.24,-613.807 1065.37,-619.31 1074.12,-612.69 1074.12,-612.69"/>
<ellipse fill="black" stroke="black" cx="1146.82" cy="-596.033" rx="4.00001" ry="4.00001"/>
</g>
<!-- Tag -->
<g id="node21" class="node"><title>Tag</title>
<polyline fill="none" stroke="black" points="584.061,-838.23 672.061,-838.23 "/>
<path fill="none" stroke="black" d="M672.061,-838.23C678.061,-838.23 684.061,-844.23 684.061,-850.23"/>
<polyline fill="none" stroke="black" points="684.061,-850.23 684.061,-896.23 "/>
<path fill="none" stroke="black" d="M684.061,-896.23C684.061,-902.23 678.061,-908.23 672.061,-908.23"/>
<polyline fill="none" stroke="black" points="672.061,-908.23 584.061,-908.23 "/>
<path fill="none" stroke="black" d="M584.061,-908.23C578.061,-908.23 572.061,-902.23 572.061,-896.23"/>
<polyline fill="none" stroke="black" points="572.061,-896.23 572.061,-850.23 "/>
<path fill="none" stroke="black" d="M572.061,-850.23C572.061,-844.23 578.061,-838.23 584.061,-838.23"/>
<text text-anchor="middle" x="628.061" y="-891.63" font-family="Times Roman,serif" font-size="14.00">Tag</text>
<polyline fill="none" stroke="black" points="572.061,-882.23 684.061,-882.23 "/>
<text text-anchor="start" x="580.061" y="-865.63" font-family="Times Roman,serif" font-size="14.00">name :string</text>
<text text-anchor="start" x="580.061" y="-847.63" font-family="Times Roman,serif" font-size="14.00">nature :string</text>
</g>
<!-- Product&#45;&gt;Tag -->
<g id="edge54" class="edge"><title>Product&#45;&gt;Tag</title>
<path fill="none" stroke="black" d="M841.643,-721.535C789.012,-758.916 729.016,-801.527 686.04,-832.051"/>
<polygon fill="black" stroke="black" points="841.709,-721.488 852.468,-719.366 845.785,-718.593 849.862,-715.697 849.862,-715.697 849.862,-715.697 845.785,-718.593 847.256,-712.029 841.709,-721.488 841.709,-721.488"/>
<polygon fill="black" stroke="black" points="685.832,-832.198 675.073,-834.32 681.756,-835.094 677.679,-837.989 677.679,-837.989 677.679,-837.989 681.756,-835.094 680.285,-841.658 685.832,-832.198 685.832,-832.198"/>
</g>
<!-- Product&#45;&gt;CouponCode -->
<g id="edge58" class="edge"><title>Product&#45;&gt;CouponCode</title>
<path fill="none" stroke="black" d="M839.888,-630.038C839.75,-630.026 839.611,-630.015 839.472,-630.004"/>
<polygon fill="black" stroke="black" points="839.903,-630.039 849.51,-635.327 844.887,-630.44 849.871,-630.842 849.871,-630.842 849.871,-630.842 844.887,-630.44 850.232,-626.356 839.903,-630.039 839.903,-630.039"/>
<polygon fill="black" stroke="black" points="846.529,-630.573 836.923,-625.284 841.545,-630.171 836.562,-629.77 836.562,-629.77 836.562,-629.77 841.545,-630.171 836.2,-634.255 846.529,-630.573 846.529,-630.573"/>
</g>
<!-- Product&#45;&gt;Review -->
<g id="edge46" class="edge"><title>Product&#45;&gt;Review</title>
<path fill="none" stroke="black" d="M859.942,-515.421C835.777,-484.587 811.214,-453.243 791.631,-428.255"/>
<polygon fill="black" stroke="black" points="860.092,-515.612 862.718,-526.259 863.176,-519.548 866.26,-523.483 866.26,-523.483 866.26,-523.483 863.176,-519.548 869.802,-520.708 860.092,-515.612 860.092,-515.612"/>
<ellipse fill="black" stroke="black" cx="788.972" cy="-424.862" rx="4.00002" ry="4.00002"/>
</g>
<!-- City&#45;&gt;Order -->
<g id="edge62" class="edge"><title>City&#45;&gt;Order</title>
<path fill="none" stroke="black" d="M340.634,-557.882C366.649,-542.761 398.66,-524.153 428.523,-506.794"/>
<polygon fill="black" stroke="black" points="340.415,-558.009 329.508,-559.144 336.093,-560.522 331.77,-563.035 331.77,-563.035 331.77,-563.035 336.093,-560.522 334.031,-566.925 340.415,-558.009 340.415,-558.009"/>
<ellipse fill="black" stroke="black" cx="432.201" cy="-504.656" rx="4.00002" ry="4.00002"/>
</g>
<!-- City&#45;&gt;UserDetail -->
<g id="edge64" class="edge"><title>City&#45;&gt;UserDetail</title>
<path fill="none" stroke="black" d="M236.243,-557.682C203.705,-537.541 161.127,-511.186 125.972,-489.426"/>
<polygon fill="black" stroke="black" points="236.305,-557.72 242.439,-566.809 240.556,-560.351 244.808,-562.983 244.808,-562.983 244.808,-562.983 240.556,-560.351 247.176,-559.157 236.305,-557.72 236.305,-557.72"/>
<ellipse fill="black" stroke="black" cx="122.446" cy="-487.244" rx="4.00002" ry="4.00002"/>
</g>
</g>
</svg>
